<svg xmlns="http://www.w3.org/2000/svg" version="1.1" xmlns:xlink="http://www.w3.org/1999/xlink" xmlns:svgjs="http://svgjs.dev/svgjs" width="1500" height="446" viewBox="0 0 1500 446"><g transform="matrix(1,0,0,1,-0.9090909090909918,0.6731795396247264)"><svg viewBox="0 0 396 118" data-background-color="#ffffff" preserveAspectRatio="xMidYMid meet" height="446" width="1500" xmlns="http://www.w3.org/2000/svg" xmlns:xlink="http://www.w3.org/1999/xlink"><g id="tight-bounds" transform="matrix(1,0,0,1,0.2400000000000091,-0.17810579747919064)"><svg viewBox="0 0 395.52 118.35621159495838" height="118.35621159495838" width="395.52"><g><svg viewBox="0 0 395.52 118.35621159495838" height="118.35621159495838" width="395.52"><g transform="matrix(1,0,0,1,0,73.1488869814031)"><svg viewBox="0 0 395.52 45.207324613555286" height="45.207324613555286" width="395.52"><g id="textblocktransform"><svg viewBox="0 0 395.52 45.207324613555286" height="45.207324613555286" width="395.52" id="textblock"><g><svg viewBox="0 0 395.52 45.207324613555286" height="45.207324613555286" width="395.52"><g transform="matrix(1,0,0,1,0,0)"><svg width="395.52" viewBox="3 -37.7 336.36 38.45" height="45.207324613555286" data-palette-color="#000000"><path d="M10.9-34.55Q17.15-34.55 20.43-31.78 23.7-29 23.7-23.6L23.7-23.6Q23.7-17.85 20.48-15 17.25-12.15 11.35-12.15L11.35-12.15 9.35-12.15 9.35 0 3 0 3-34.55 10.9-34.55ZM11-16.9Q14.25-16.9 15.7-18.4 17.15-19.9 17.15-23.55L17.15-23.55Q17.15-26.85 15.7-28.35 14.25-29.85 11.05-29.85L11.05-29.85 9.35-29.85 9.35-16.9 11-16.9ZM38.95-27.1Q40.1-27.1 41-26.75L41-26.75 40-20.85Q39-21.1 38.15-21.1L38.15-21.1Q36.25-21.1 35.15-19.45 34.05-17.8 33.45-14.55L33.45-14.55 33.45 0 27.3 0 27.3-26.45 32.65-26.45 33.1-21.85Q34.95-27.1 38.95-27.1L38.95-27.1ZM53.25-27.15Q58.25-27.15 61.02-23.65 63.8-20.15 63.8-13.25L63.8-13.25Q63.8-6.65 61-2.95 58.2 0.75 53.25 0.75L53.25 0.75Q48.3 0.75 45.5-2.88 42.7-6.5 42.7-13.25L42.7-13.25Q42.7-19.95 45.5-23.55 48.3-27.15 53.25-27.15L53.25-27.15ZM53.25-22.5Q51.1-22.5 50.1-20.38 49.1-18.25 49.1-13.25L49.1-13.25Q49.1-8.2 50.1-6.08 51.1-3.95 53.25-3.95L53.25-3.95Q55.4-3.95 56.4-6.08 57.4-8.2 57.4-13.25L57.4-13.25Q57.4-18.3 56.4-20.4 55.4-22.5 53.25-22.5L53.25-22.5ZM77.84-27.15Q79.99-27.15 81.74-26.43 83.49-25.7 85.09-24.15L85.09-24.15 82.44-20.65Q81.34-21.55 80.37-21.98 79.39-22.4 78.24-22.4L78.24-22.4Q75.99-22.4 74.84-20.28 73.69-18.15 73.69-13.1L73.69-13.1Q73.69-8.2 74.87-6.2 76.04-4.2 78.24-4.2L78.24-4.2Q79.34-4.2 80.24-4.6 81.14-5 82.34-5.85L82.34-5.85 85.09-2.3Q81.89 0.75 77.94 0.75L77.94 0.75Q72.84 0.75 70.02-2.73 67.19-6.2 67.19-13L67.19-13Q67.19-17.4 68.49-20.6 69.79-23.8 72.22-25.48 74.64-27.15 77.84-27.15L77.84-27.15ZM106.99-13.85Q106.99-13.4 106.84-11.3L106.84-11.3 93.19-11.3Q93.39-7.2 94.62-5.58 95.84-3.95 98.09-3.95L98.09-3.95Q99.64-3.95 100.89-4.48 102.14-5 103.59-6.15L103.59-6.15 106.14-2.65Q102.64 0.75 97.74 0.75L97.74 0.75Q92.54 0.75 89.77-2.85 86.99-6.45 86.99-13L86.99-13Q86.99-19.55 89.64-23.35 92.29-27.15 97.14-27.15L97.14-27.15Q101.79-27.15 104.39-23.78 106.99-20.4 106.99-13.85L106.99-13.85ZM100.99-15.3L100.99-15.65Q100.99-19.4 100.09-21.13 99.19-22.85 97.19-22.85L97.19-22.85Q95.34-22.85 94.37-21.18 93.39-19.5 93.19-15.3L93.19-15.3 100.99-15.3ZM118.64-27.15Q123.34-27.15 126.59-24.05L126.59-24.05 124.24-20.7Q122.84-21.7 121.59-22.2 120.34-22.7 119.04-22.7L119.04-22.7Q117.59-22.7 116.76-21.93 115.94-21.15 115.94-19.8L115.94-19.8Q115.94-18.45 116.86-17.63 117.79-16.8 120.59-15.7L120.59-15.7Q124.04-14.35 125.69-12.5 127.34-10.65 127.34-7.55L127.34-7.55Q127.34-3.7 124.64-1.48 121.94 0.75 117.79 0.75L117.79 0.75Q115.09 0.75 112.81-0.23 110.54-1.2 108.84-2.95L108.84-2.95 111.84-6.25Q114.64-3.8 117.54-3.8L117.54-3.8Q119.19-3.8 120.14-4.67 121.09-5.55 121.09-7.1L121.09-7.1Q121.09-8.25 120.69-8.97 120.29-9.7 119.29-10.33 118.29-10.95 116.29-11.7L116.29-11.7Q112.84-13.05 111.36-14.85 109.89-16.65 109.89-19.45L109.89-19.45Q109.89-22.8 112.26-24.98 114.64-27.15 118.64-27.15L118.64-27.15ZM138.53-27.15Q143.24-27.15 146.49-24.05L146.49-24.05 144.14-20.7Q142.74-21.7 141.49-22.2 140.24-22.7 138.94-22.7L138.94-22.7Q137.49-22.7 136.66-21.93 135.84-21.15 135.84-19.8L135.84-19.8Q135.84-18.45 136.76-17.63 137.69-16.8 140.49-15.7L140.49-15.7Q143.94-14.35 145.59-12.5 147.24-10.65 147.24-7.55L147.24-7.55Q147.24-3.7 144.53-1.48 141.84 0.75 137.69 0.75L137.69 0.75Q134.99 0.75 132.71-0.23 130.44-1.2 128.74-2.95L128.74-2.95 131.74-6.25Q134.53-3.8 137.44-3.8L137.44-3.8Q139.09-3.8 140.03-4.67 140.99-5.55 140.99-7.1L140.99-7.1Q140.99-8.25 140.59-8.97 140.19-9.7 139.19-10.33 138.19-10.95 136.19-11.7L136.19-11.7Q132.74-13.05 131.26-14.85 129.78-16.65 129.78-19.45L129.78-19.45Q129.78-22.8 132.16-24.98 134.53-27.15 138.53-27.15L138.53-27.15ZM167.98-6.4Q167.98-5.1 168.33-4.48 168.68-3.85 169.48-3.45L169.48-3.45 168.23 0.65Q166.18 0.4 164.96-0.45 163.73-1.3 163.13-3.05L163.13-3.05Q160.83 0.75 156.68 0.75L156.68 0.75Q153.38 0.75 151.43-1.48 149.48-3.7 149.48-7.4L149.48-7.4Q149.48-11.7 152.16-13.95 154.83-16.2 159.93-16.2L159.93-16.2 161.98-16.2 161.98-18.05Q161.98-20.55 161.11-21.58 160.23-22.6 158.28-22.6L158.28-22.6Q155.93-22.6 152.43-21.3L152.43-21.3 151.03-25.3Q153.03-26.2 155.18-26.68 157.33-27.15 159.28-27.15L159.28-27.15Q167.98-27.15 167.98-18.35L167.98-18.35 167.98-6.4ZM158.33-3.7Q160.73-3.7 161.98-7L161.98-7 161.98-12.55 160.53-12.55Q157.98-12.55 156.81-11.4 155.63-10.25 155.63-7.85L155.63-7.85Q155.63-5.8 156.33-4.75 157.03-3.7 158.33-3.7L158.33-3.7ZM186.73-37.7L192.88-37.05 192.88 0 187.43 0 187.13-3.05Q184.78 0.75 181.08 0.75L181.08 0.75Q176.98 0.75 174.81-2.93 172.63-6.6 172.63-13.2L172.63-13.2Q172.63-17.4 173.75-20.58 174.88-23.75 176.88-25.45 178.88-27.15 181.48-27.15L181.48-27.15Q184.68-27.15 186.73-24.5L186.73-24.5 186.73-37.7ZM182.83-3.9Q183.98-3.9 184.91-4.7 185.83-5.5 186.73-7L186.73-7 186.73-19.85Q185.13-22.55 183.08-22.55L183.08-22.55Q179.03-22.55 179.03-13.25L179.03-13.25Q179.03-8.2 180.03-6.05 181.03-3.9 182.83-3.9L182.83-3.9ZM207.98-27.15Q212.98-27.15 215.75-23.65 218.53-20.15 218.53-13.25L218.53-13.25Q218.53-6.65 215.73-2.95 212.93 0.75 207.98 0.75L207.98 0.75Q203.03 0.75 200.23-2.88 197.43-6.5 197.43-13.25L197.43-13.25Q197.43-19.95 200.23-23.55 203.03-27.15 207.98-27.15L207.98-27.15ZM207.98-22.5Q205.83-22.5 204.83-20.38 203.83-18.25 203.83-13.25L203.83-13.25Q203.83-8.2 204.83-6.08 205.83-3.95 207.98-3.95L207.98-3.95Q210.13-3.95 211.13-6.08 212.13-8.2 212.13-13.25L212.13-13.25Q212.13-18.3 211.13-20.4 210.13-22.5 207.98-22.5L207.98-22.5ZM234.73-27.1Q235.88-27.1 236.78-26.75L236.78-26.75 235.78-20.85Q234.78-21.1 233.93-21.1L233.93-21.1Q232.03-21.1 230.93-19.45 229.83-17.8 229.23-14.55L229.23-14.55 229.23 0 223.08 0 223.08-26.45 228.43-26.45 228.88-21.85Q230.73-27.1 234.73-27.1L234.73-27.1ZM249.62-34.55L255.97-34.55 255.97 0 249.62 0 249.62-34.55ZM273.47-35.25Q276.12-35.25 278.14-34.38 280.17-33.5 282.07-31.7L282.07-31.7 279.02-28.05Q277.72-29.25 276.49-29.83 275.27-30.4 273.82-30.4L273.82-30.4Q270.82-30.4 269.12-27.4 267.42-24.4 267.42-17.35L267.42-17.35Q267.42-10.4 269.12-7.38 270.82-4.35 273.92-4.35L273.92-4.35Q275.47-4.35 276.62-4.98 277.77-5.6 279.32-6.9L279.32-6.9 282.37-3.4Q280.77-1.6 278.52-0.43 276.27 0.75 273.47 0.75L273.47 0.75Q267.62 0.75 264.17-3.8 260.72-8.35 260.72-17.35L260.72-17.35Q260.72-23.3 262.37-27.3 264.02-31.3 266.89-33.27 269.77-35.25 273.47-35.25L273.47-35.25ZM311.82-34.55L314.02 0 307.97 0 307.37-14.6Q307.07-22.6 307.07-26L307.07-26 307.12-28.6 302.37-3.8 296.37-3.8 291.42-28.65Q291.47-27.15 291.47-24.05L291.47-24.05Q291.47-18.8 291.27-14.4L291.27-14.4 290.72 0 284.77 0 286.97-34.55 294.97-34.55 299.47-10.2 303.67-34.55 311.82-34.55ZM330.46-35.25Q333.11-35.25 335.14-34.38 337.16-33.5 339.06-31.7L339.06-31.7 336.01-28.05Q334.71-29.25 333.49-29.83 332.26-30.4 330.81-30.4L330.81-30.4Q327.81-30.4 326.11-27.4 324.41-24.4 324.41-17.35L324.41-17.35Q324.41-10.4 326.11-7.38 327.81-4.35 330.91-4.35L330.91-4.35Q332.46-4.35 333.61-4.98 334.76-5.6 336.31-6.9L336.31-6.9 339.36-3.4Q337.76-1.6 335.51-0.43 333.26 0.75 330.46 0.75L330.46 0.75Q324.61 0.75 321.16-3.8 317.71-8.35 317.71-17.35L317.71-17.35Q317.71-23.3 319.36-27.3 321.01-31.3 323.89-33.27 326.76-35.25 330.46-35.25L330.46-35.25Z" opacity="1" transform="matrix(1,0,0,1,0,0)" fill="#000000" class="wordmark-text-0" data-fill-palette-color="primary" id="text-0"></path></svg></g></svg></g></svg></g></svg></g><g transform="matrix(1,0,0,1,166.52062305312512,0)"><svg viewBox="0 0 62.47875389374972 62.47652261593341" height="62.47652261593341" width="62.47875389374972"><g><svg xmlns="http://www.w3.org/2000/svg" xmlns:xlink="http://www.w3.org/1999/xlink" version="1.1" x="0" y="0" viewBox="8 8 84.004 84.001" enable-background="new 0 0 100 100" xml:space="preserve" height="62.47652261593341" width="62.47875389374972" class="icon-icon-0" data-fill-palette-color="accent" id="icon-0"><path d="M68.371 62.917c0 3.012-2.441 5.454-5.454 5.454H37.083c-3.012 0-5.454-2.442-5.454-5.454V37.083c0-3.013 2.442-5.454 5.454-5.454h25.834c3.013 0 5.454 2.441 5.454 5.454V62.917z" fill="#000000" data-fill-palette-color="accent"></path><path d="M91.066 31.333c0.517 0 0.934-0.418 0.934-0.934v-2.333c0-0.516-0.417-0.934-0.934-0.934H79.779v-4.056c0-1.6-1.298-2.897-2.896-2.897h-4.017V8.933C72.866 8.417 72.449 8 71.934 8H69.6c-0.516 0-0.933 0.417-0.933 0.933V20.18h-4.162V8.933C64.505 8.417 64.088 8 63.571 8h-2.333c-0.516 0-0.934 0.417-0.934 0.933V20.18h-4.2V8.933C56.104 8.417 55.688 8 55.172 8h-2.334c-0.516 0-0.934 0.417-0.934 0.933V20.18h-3.811V8.933C48.094 8.417 47.676 8 47.16 8h-2.333c-0.514 0-0.934 0.417-0.934 0.933V20.18h-4.16V8.933C39.734 8.417 39.314 8 38.8 8h-2.333c-0.516 0-0.934 0.417-0.934 0.933V20.18h-4.2V8.933C31.333 8.417 30.915 8 30.4 8h-2.333c-0.516 0-0.934 0.417-0.934 0.933V20.18h-4.096c-1.601 0-2.896 1.298-2.896 2.897v4.056H8.933C8.417 27.133 8 27.551 8 28.067V30.4c0 0.515 0.417 0.934 0.933 0.934h11.208v4.2H8.933C8.417 35.533 8 35.951 8 36.467V38.8c0 0.515 0.417 0.934 0.933 0.934h11.208v4.161H8.933C8.417 43.894 8 44.313 8 44.828v2.333c0 0.516 0.417 0.934 0.933 0.934h11.208v3.81H8.933C8.417 51.904 8 52.322 8 52.838v2.334c0 0.516 0.417 0.933 0.933 0.933h11.208v4.2H8.933C8.417 60.305 8 60.723 8 61.238v2.333c0 0.517 0.417 0.934 0.933 0.934h11.208v4.162H8.933C8.417 68.667 8 69.084 8 69.6v2.334c0 0.516 0.417 0.933 0.933 0.933h11.208v4.057c0 1.6 1.296 2.897 2.896 2.897h4.096v11.246c0 0.517 0.417 0.934 0.934 0.934H30.4c0.515 0 0.934-0.417 0.934-0.934V79.82h4.2v11.246c0 0.517 0.417 0.934 0.934 0.934H38.8c0.514 0 0.934-0.417 0.934-0.934V79.82h4.16v11.246c0 0.517 0.419 0.934 0.934 0.934h2.333c0.516 0 0.934-0.417 0.934-0.934V79.82h3.811v11.246c0 0.517 0.418 0.934 0.934 0.934h2.334c0.516 0 0.933-0.417 0.933-0.934V79.82h4.2v11.246c0 0.517 0.418 0.934 0.934 0.934h2.333c0.517 0 0.934-0.417 0.934-0.934V79.82h4.162v11.246c0 0.517 0.417 0.934 0.933 0.934h2.334c0.516 0 0.933-0.417 0.933-0.934V79.82h4.015c1.601 0 2.898-1.298 2.898-2.897v-4.057h11.287c0.517 0 0.934-0.417 0.934-0.933V69.6c0-0.516-0.417-0.933-0.934-0.933H79.779v-4.162h11.287c0.517 0 0.934-0.417 0.934-0.934v-2.333c0-0.516-0.417-0.934-0.934-0.934H79.779v-4.2h11.287c0.517 0 0.934-0.417 0.934-0.933v-2.334c0-0.516-0.417-0.934-0.934-0.934H79.779v-3.81h11.287c0.517 0 0.934-0.417 0.934-0.934v-2.333c0-0.515-0.417-0.934-0.934-0.934H79.779v-4.161h11.287c0.517 0 0.934-0.418 0.934-0.934v-2.333c0-0.516-0.417-0.934-0.934-0.934H79.779v-4.2H91.066zM73.8 71.934c0 1.03-0.836 1.866-1.866 1.866H28.067c-1.031 0-1.867-0.836-1.867-1.866V28.067c0-1.031 0.835-1.867 1.867-1.867h43.867c1.03 0 1.866 0.835 1.866 1.867V71.934z" fill="#000000" data-fill-palette-color="accent"></path></svg></g></svg></g><g></g></svg></g><defs></defs></svg><rect width="395.52" height="118.35621159495838" fill="none" stroke="none" visibility="hidden"></rect></g></svg></g></svg>